<svg width="686" height="686" viewBox="0 0 686 686" fill="none" xmlns="http://www.w3.org/2000/svg">
<rect width="686" height="686" rx="160.067" fill="black"/>
<path d="M409.694 220C407.081 220 404.715 221.592 403.739 224.015L305.615 466.98H400.207C402.831 466.98 405.186 465.388 406.161 462.966L500.618 228.826C502.323 224.609 499.216 220 494.663 220H409.694Z" fill="white"/>
<path d="M333.074 349.086L282.723 224.037C281.747 221.604 279.381 220 276.757 220L191.428 220.022C186.875 220.022 183.769 224.631 185.474 228.848L281.355 465.444C282.196 467.519 285.145 467.519 285.986 465.444L333.063 349.086H333.074Z" fill="white"/>
</svg>
